<svg xmlns="http://www.w3.org/2000/svg" version="1.1" viewBox="0 0 512 512" width="512" height="512"><g stroke-width="2" fill="none" stroke-linecap="butt"><path stroke="#0677f5" d="M 135.34 256.02 Q 135.34 269.01 135.30 385.22 A 0.55 0.55 0.0 0 0 135.92 385.76 L 300.35 365.68 A 0.80 0.79 83.5 0 0 301.04 364.80 L 300.68 361.86 Q 300.61 361.30 300.07 361.12 L 235.50 340.05 A 7.87 7.80 -39.2 0 0 232.12 339.72 L 191.08 344.74 A 0.41 0.40 -3.2 0 1 190.63 344.34 Q 190.58 300.24 190.60 256.04 Q 190.61 211.84 190.69 167.74 A 0.41 0.40 3.2 0 1 191.15 167.34 L 232.18 172.39 A 7.87 7.80 39.2 0 0 235.56 172.06 L 300.15 151.04 Q 300.69 150.86 300.76 150.30 L 301.12 147.36 A 0.80 0.79 -83.4 0 0 300.43 146.48 L 136.02 126.28 A 0.55 0.55 0.0 0 0 135.39 126.81 Q 135.35 243.02 135.34 256.02" data-c-stroke="7eb7f6"/><path stroke="#00eb98" d="M 292.36 178.84 Q 291.82 178.83 291.34 178.92 Q 290.59 179.06 291.34 179.21 Q 299.03 180.77 304.89 180.91 C 306.29 180.95 307.98 181.75 309.19 181.79 Q 312.40 181.89 314.92 182.52 C 317.52 183.17 320.35 182.52 322.61 183.16 Q 323.12 183.31 323.11 183.84 Q 322.93 194.03 323.59 212.51 C 323.81 218.76 323.35 225.56 323.40 231.45 Q 323.86 284.72 323.33 327.68 A 1.45 1.44 89.6 0 1 321.93 329.11 C 320.03 329.17 318.48 329.02 316.48 329.40 Q 309.11 330.80 300.57 331.66 A 0.04 0.03 59.7 0 0 300.56 331.72 Q 300.67 331.82 300.65 331.95 Q 300.63 332.19 300.39 332.17 Q 298.38 331.96 295.25 332.62 Q 294.06 332.87 288.89 333.12 Q 288.37 333.15 288.18 333.63 Q 287.81 334.56 288.08 335.64 Q 288.21 336.16 288.72 336.32 Q 301.59 340.52 321.77 347.64 Q 323.83 348.37 327.86 349.47 Q 331.19 350.38 333.95 351.30 Q 353.47 357.79 356.51 358.43 Q 357.13 358.56 362.18 357.87 Q 364.93 357.49 367.82 357.07 Q 372.59 356.37 374.31 355.93 Q 375.72 355.56 375.72 354.11 Q 375.69 340.89 375.94 328.00 Q 376.20 314.72 376.20 308.00 Q 376.23 241.00 376.21 180.50 Q 376.21 177.85 376.52 175.65 Q 376.94 172.68 376.91 170.83 Q 376.86 166.63 376.53 157.34 Q 376.47 155.81 374.94 155.67 Q 367.02 154.92 360.72 154.25 C 358.29 153.99 354.68 154.63 352.38 155.39 C 343.61 158.30 333.93 160.61 324.54 163.81 Q 318.94 165.73 314.86 167.00 Q 310.15 168.47 306.49 170.07 Q 303.10 171.55 298.01 172.88 Q 296.57 173.26 293.67 174.39 Q 290.95 175.46 289.31 175.85 Q 287.71 176.24 287.82 177.79 A 1.04 1.04 0.0 0 0 288.74 178.75 Q 290.48 178.94 292.37 178.89 A 0.03 0.02 39.2 0 0 292.36 178.84" data-c-stroke="7bf1c7"/></g><path fill="#f6f6f6" d="M 512.00 0.00 L 512.00 512.00 L 0.00 512.00 L 0.00 0.00 L 512.00 0.00 Z M 135.34 256.02 Q 135.34 269.01 135.30 385.22 A 0.55 0.55 0.0 0 0 135.92 385.76 L 300.35 365.68 A 0.80 0.79 83.5 0 0 301.04 364.80 L 300.68 361.86 Q 300.61 361.30 300.07 361.12 L 235.50 340.05 A 7.87 7.80 -39.2 0 0 232.12 339.72 L 191.08 344.74 A 0.41 0.40 -3.2 0 1 190.63 344.34 Q 190.58 300.24 190.60 256.04 Q 190.61 211.84 190.69 167.74 A 0.41 0.40 3.2 0 1 191.15 167.34 L 232.18 172.39 A 7.87 7.80 39.2 0 0 235.56 172.06 L 300.15 151.04 Q 300.69 150.86 300.76 150.30 L 301.12 147.36 A 0.80 0.79 -83.4 0 0 300.43 146.48 L 136.02 126.28 A 0.55 0.55 0.0 0 0 135.39 126.81 Q 135.35 243.02 135.34 256.02 Z M 292.36 178.84 Q 291.82 178.83 291.34 178.92 Q 290.59 179.06 291.34 179.21 Q 299.03 180.77 304.89 180.91 C 306.29 180.95 307.98 181.75 309.19 181.79 Q 312.40 181.89 314.92 182.52 C 317.52 183.17 320.35 182.52 322.61 183.16 Q 323.12 183.31 323.11 183.84 Q 322.93 194.03 323.59 212.51 C 323.81 218.76 323.35 225.56 323.40 231.45 Q 323.86 284.72 323.33 327.68 A 1.45 1.44 89.6 0 1 321.93 329.11 C 320.03 329.17 318.48 329.02 316.48 329.40 Q 309.11 330.80 300.57 331.66 A 0.04 0.03 59.7 0 0 300.56 331.72 Q 300.67 331.82 300.65 331.95 Q 300.63 332.19 300.39 332.17 Q 298.38 331.96 295.25 332.62 Q 294.06 332.87 288.89 333.12 Q 288.37 333.15 288.18 333.63 Q 287.81 334.56 288.08 335.64 Q 288.21 336.16 288.72 336.32 Q 301.59 340.52 321.77 347.64 Q 323.83 348.37 327.86 349.47 Q 331.19 350.38 333.95 351.30 Q 353.47 357.79 356.51 358.43 Q 357.13 358.56 362.18 357.87 Q 364.93 357.49 367.82 357.07 Q 372.59 356.37 374.31 355.93 Q 375.72 355.56 375.72 354.11 Q 375.69 340.89 375.94 328.00 Q 376.20 314.72 376.20 308.00 Q 376.23 241.00 376.21 180.50 Q 376.21 177.85 376.52 175.65 Q 376.94 172.68 376.91 170.83 Q 376.86 166.63 376.53 157.34 Q 376.47 155.81 374.94 155.67 Q 367.02 154.92 360.72 154.25 C 358.29 153.99 354.68 154.63 352.38 155.39 C 343.61 158.30 333.93 160.61 324.54 163.81 Q 318.94 165.73 314.86 167.00 Q 310.15 168.47 306.49 170.07 Q 303.10 171.55 298.01 172.88 Q 296.57 173.26 293.67 174.39 Q 290.95 175.46 289.31 175.85 Q 287.71 176.24 287.82 177.79 A 1.04 1.04 0.0 0 0 288.74 178.75 Q 290.48 178.94 292.37 178.89 A 0.03 0.02 39.2 0 0 292.36 178.84 Z" data-c-fill="f6f6f6" fill-opacity="0"/><path fill="#0677f5" d="M 190.60 256.04 Q 190.58 300.24 190.63 344.34 A 0.41 0.40 -3.2 0 0 191.08 344.74 L 232.12 339.72 A 7.87 7.80 -39.2 0 1 235.50 340.05 L 300.07 361.12 Q 300.61 361.30 300.68 361.86 L 301.04 364.80 A 0.80 0.79 83.5 0 1 300.35 365.68 L 135.92 385.76 A 0.55 0.55 0.0 0 1 135.30 385.22 Q 135.34 269.01 135.34 256.02 Q 135.35 243.02 135.39 126.81 A 0.55 0.55 0.0 0 1 136.02 126.28 L 300.43 146.48 A 0.80 0.79 -83.4 0 1 301.12 147.36 L 300.76 150.30 Q 300.69 150.86 300.15 151.04 L 235.56 172.06 A 7.87 7.80 39.2 0 1 232.18 172.39 L 191.15 167.34 A 0.41 0.40 3.2 0 0 190.69 167.74 Q 190.61 211.84 190.60 256.04 Z" data-c-fill="0677f5"/><path fill="#00eb98" d="M 292.37 178.89 Q 290.48 178.94 288.74 178.75 A 1.04 1.04 0.0 0 1 287.82 177.79 Q 287.71 176.24 289.31 175.85 Q 290.95 175.46 293.67 174.39 Q 296.57 173.26 298.01 172.88 Q 303.10 171.55 306.49 170.07 Q 310.15 168.47 314.86 167.00 Q 318.94 165.73 324.54 163.81 C 333.93 160.61 343.61 158.30 352.38 155.39 C 354.68 154.63 358.29 153.99 360.72 154.25 Q 367.02 154.92 374.94 155.67 Q 376.47 155.81 376.53 157.34 Q 376.86 166.63 376.91 170.83 Q 376.94 172.68 376.52 175.65 Q 376.21 177.85 376.21 180.50 Q 376.23 241.00 376.20 308.00 Q 376.20 314.72 375.94 328.00 Q 375.69 340.89 375.72 354.11 Q 375.72 355.56 374.31 355.93 Q 372.59 356.37 367.82 357.07 Q 364.93 357.49 362.18 357.87 Q 357.13 358.56 356.51 358.43 Q 353.47 357.79 333.95 351.30 Q 331.19 350.38 327.86 349.47 Q 323.83 348.37 321.77 347.64 Q 301.59 340.52 288.72 336.32 Q 288.21 336.16 288.08 335.64 Q 287.81 334.56 288.18 333.63 Q 288.37 333.15 288.89 333.12 Q 294.06 332.87 295.25 332.62 Q 298.38 331.96 300.39 332.17 Q 300.63 332.19 300.65 331.95 Q 300.67 331.82 300.56 331.72 A 0.04 0.03 59.7 0 1 300.57 331.66 Q 309.11 330.80 316.48 329.40 C 318.48 329.02 320.03 329.17 321.93 329.11 A 1.45 1.44 89.6 0 0 323.33 327.68 Q 323.86 284.72 323.40 231.45 C 323.35 225.56 323.81 218.76 323.59 212.51 Q 322.93 194.03 323.11 183.84 Q 323.12 183.31 322.61 183.16 C 320.35 182.52 317.52 183.17 314.92 182.52 Q 312.40 181.89 309.19 181.79 C 307.98 181.75 306.29 180.95 304.89 180.91 Q 299.03 180.77 291.34 179.21 Q 290.59 179.06 291.34 178.92 Q 291.82 178.83 292.36 178.84 A 0.03 0.02 39.2 0 1 292.37 178.89 Z" data-c-fill="00eb98"/></svg>